<svg width="378" height="378" viewBox="0 0 378 378" fill="none" xmlns="http://www.w3.org/2000/svg">
<path d="M79.8485 194.513C79.6871 194.351 79.502 194.225 79.2894 194.138C79.0768 194.048 78.8563 194.005 78.6279 194.005C78.3995 194.005 78.179 194.048 77.9664 194.138C77.7538 194.225 77.5687 194.351 77.4073 194.513C76.9978 194.91 76.6316 195.347 76.3087 195.82C75.9858 196.288 75.7102 196.788 75.4858 197.316C75.2613 197.84 75.092 198.383 74.9778 198.942C74.8597 199.505 74.8007 200.068 74.7967 200.643C74.7928 201.214 74.844 201.781 74.9542 202.34C75.0645 202.903 75.2259 203.447 75.4425 203.978C75.659 204.506 75.9268 205.01 76.2457 205.482C76.5607 205.959 76.923 206.4 77.3246 206.805C77.7302 207.207 78.1712 207.569 78.6476 207.888C79.124 208.203 79.6241 208.471 80.1557 208.688C80.6833 208.904 81.2267 209.066 81.7897 209.176C82.3528 209.286 82.9198 209.337 83.4907 209.333C84.0617 209.329 84.6287 209.27 85.1878 209.152C85.7469 209.038 86.2903 208.869 86.8179 208.644C87.3416 208.42 87.8417 208.144 88.3142 207.821C88.7867 207.498 89.2198 207.132 89.6175 206.723C89.771 206.561 89.8892 206.372 89.9679 206.164C90.0467 205.955 90.086 205.738 90.0821 205.514C90.0782 205.289 90.0348 205.077 89.9443 204.868C89.8577 204.663 89.7356 204.482 89.5781 204.325C89.4167 204.163 89.2355 204.041 89.0308 203.955C88.826 203.868 88.6095 203.821 88.385 203.817C88.1606 203.813 87.944 203.852 87.7353 203.931C87.5267 204.014 87.3416 204.128 87.1762 204.281C86.936 204.522 86.6762 204.738 86.3927 204.927C86.1092 205.116 85.8099 205.274 85.4949 205.408C85.1799 205.538 84.857 205.636 84.5223 205.703C84.1916 205.766 83.853 205.801 83.5143 205.801C83.1718 205.801 82.8332 205.77 82.5024 205.703C82.1677 205.636 81.8448 205.538 81.5298 205.408C81.2148 205.278 80.9156 205.116 80.6321 204.927C80.3486 204.738 80.0887 204.526 79.8485 204.285C79.6083 204.041 79.3918 203.781 79.2028 203.498C79.0138 203.214 78.8523 202.915 78.7224 202.6C78.5925 202.289 78.494 201.962 78.4271 201.632C78.3641 201.297 78.3287 200.958 78.3287 200.62C78.3287 200.277 78.3641 199.942 78.431 199.608C78.498 199.273 78.5964 198.95 78.7263 198.635C78.8563 198.32 79.0138 198.021 79.2028 197.737C79.3957 197.458 79.6083 197.194 79.8485 196.954C80.01 196.792 80.136 196.603 80.2226 196.395C80.3132 196.182 80.3565 195.962 80.3565 195.733C80.3565 195.505 80.3132 195.284 80.2226 195.072C80.136 194.859 80.01 194.674 79.8485 194.513Z" fill="#F58634"/>
<path d="M88.33 187.055C88.5426 187.134 88.767 187.169 88.9954 187.161C89.2238 187.153 89.4403 187.098 89.649 187.004C89.8577 186.909 90.0388 186.775 90.1963 186.606C90.3499 186.441 90.468 186.248 90.5468 186.031C90.6295 185.819 90.661 185.598 90.6531 185.366C90.6452 185.137 90.594 184.921 90.4995 184.712C90.4011 184.503 90.2712 184.322 90.1018 184.165C89.9365 184.011 89.7435 183.893 89.527 183.814C87.5858 183.102 85.5816 182.751 83.5144 182.759C82.9277 182.759 82.345 182.791 81.7622 182.846C81.1795 182.905 80.6046 182.991 80.0297 183.106C79.4548 183.22 78.8878 183.362 78.3287 183.531C77.7696 183.7 77.2223 183.897 76.6789 184.121C76.1395 184.346 75.6118 184.594 75.096 184.87C74.5802 185.145 74.0802 185.444 73.5919 185.771C73.1076 186.094 72.639 186.445 72.1862 186.815C71.7334 187.185 71.3003 187.579 70.8868 187.992C70.4734 188.405 70.0796 188.839 69.7095 189.287C69.3394 189.74 68.9929 190.209 68.6661 190.697C68.3432 191.181 68.04 191.685 67.7644 192.201C67.4888 192.717 67.2407 193.245 67.0163 193.784C66.7918 194.324 66.595 194.875 66.4256 195.434C66.2563 195.993 66.1146 196.56 66.0004 197.135C65.8862 197.706 65.7996 198.285 65.7445 198.867C65.6854 199.45 65.6578 200.033 65.6578 200.616C65.6578 201.202 65.6854 201.785 65.7445 202.368C65.7996 202.951 65.8862 203.529 66.0004 204.1C66.1146 204.675 66.2563 205.242 66.4256 205.801C66.595 206.36 66.7918 206.912 67.0163 207.451C67.2407 207.991 67.4888 208.518 67.7644 209.034C68.04 209.55 68.3432 210.05 68.6661 210.538C68.9929 211.022 69.3394 211.495 69.7095 211.944C70.0796 212.397 70.4734 212.83 70.8868 213.243C71.3003 213.657 71.7334 214.05 72.1862 214.421C72.639 214.791 73.1076 215.141 73.5919 215.464C74.0802 215.791 74.5802 216.09 75.096 216.366C75.6118 216.641 76.1395 216.889 76.6789 217.114C77.2223 217.338 77.7696 217.535 78.3287 217.704C78.8878 217.874 79.4548 218.015 80.0297 218.13C80.6046 218.244 81.1795 218.33 81.7622 218.39C82.345 218.445 82.9277 218.472 83.5144 218.472C84.0972 218.472 84.6799 218.445 85.2626 218.39C85.8454 218.33 86.4242 218.244 86.9951 218.13C87.57 218.015 88.137 217.874 88.6961 217.704C89.2553 217.535 89.8065 217.338 90.346 217.114C90.8854 216.889 91.417 216.641 91.9328 216.366C92.4486 216.09 92.9487 215.791 93.433 215.464C93.9212 215.141 94.3898 214.791 94.8426 214.421C95.2954 214.05 95.7246 213.657 96.138 213.243C96.5554 212.83 96.9452 212.397 97.3153 211.944C97.6894 211.495 98.0359 211.022 98.3588 210.538C98.6856 210.05 98.9848 209.55 99.2605 209.034C99.5361 208.518 99.7881 207.991 100.013 207.451C100.233 206.912 100.43 206.36 100.599 205.801C100.772 205.242 100.914 204.675 101.028 204.1C101.143 203.529 101.225 202.951 101.284 202.368C101.339 201.785 101.371 201.202 101.371 200.616C101.379 198.548 101.028 196.544 100.32 194.603C100.237 194.39 100.119 194.198 99.9653 194.028C99.8078 193.863 99.6267 193.729 99.418 193.634C99.2093 193.54 98.9927 193.489 98.7643 193.477C98.536 193.469 98.3115 193.505 98.0989 193.583C97.8823 193.662 97.6933 193.78 97.524 193.938C97.3547 194.091 97.2248 194.272 97.1263 194.481C97.0318 194.69 96.9806 194.91 96.9688 195.139C96.961 195.367 96.9964 195.587 97.0751 195.804C97.6422 197.359 97.9217 198.962 97.9138 200.616C97.9138 201.565 97.8233 202.498 97.6382 203.427C97.4531 204.352 97.1815 205.254 96.8192 206.128C96.457 207.002 96.012 207.833 95.4883 208.617C94.9607 209.404 94.3661 210.133 93.6968 210.802C93.0274 211.467 92.299 212.066 91.5154 212.59C90.7279 213.117 89.8971 213.558 89.023 213.92C88.1488 214.283 87.2511 214.558 86.3218 214.739C85.3965 214.925 84.4594 215.019 83.5144 215.019C82.5694 215.019 81.6323 214.925 80.703 214.739C79.7777 214.558 78.876 214.283 78.0019 213.92C77.1278 213.558 76.3009 213.117 75.5134 212.59C74.7259 212.066 73.9975 211.467 73.332 210.802C72.6627 210.133 72.0642 209.404 71.5405 208.617C71.0128 207.833 70.5718 207.002 70.2096 206.128C69.8473 205.254 69.5756 204.352 69.3906 203.427C69.2055 202.498 69.111 201.565 69.111 200.616C69.111 199.671 69.2055 198.737 69.3906 197.808C69.5756 196.879 69.8473 195.981 70.2096 195.107C70.5718 194.233 71.0128 193.402 71.5405 192.619C72.0642 191.831 72.6627 191.103 73.332 190.433C73.9975 189.768 74.7259 189.169 75.5134 188.646C76.3009 188.118 77.1278 187.673 78.0019 187.315C78.876 186.953 79.7777 186.677 80.703 186.492C81.6323 186.311 82.5694 186.216 83.5144 186.216C85.1681 186.208 86.7747 186.488 88.33 187.055Z" fill="#F58634"/>
<path d="M82.2937 201.84C82.4551 201.998 82.6441 202.116 82.8568 202.202C83.0655 202.285 83.286 202.328 83.5143 202.328C83.7427 202.328 83.9593 202.285 84.1719 202.202C84.3845 202.116 84.5696 201.998 84.735 201.84L100.721 185.854L107.962 187.299C108.561 187.409 109.081 187.252 109.522 186.827L119.294 177.054C119.523 176.829 119.672 176.561 119.751 176.25C119.826 175.943 119.818 175.636 119.728 175.329C119.637 175.026 119.472 174.766 119.235 174.553C118.999 174.337 118.723 174.199 118.412 174.136L111.396 172.734L109.994 165.718C109.931 165.407 109.793 165.131 109.577 164.895C109.364 164.658 109.104 164.493 108.801 164.402C108.494 164.312 108.187 164.304 107.88 164.383C107.569 164.462 107.305 164.611 107.076 164.836L97.2995 174.608C96.8664 175.046 96.7089 175.565 96.827 176.172L98.276 183.409L82.2937 199.395C82.1323 199.556 82.0063 199.745 81.9196 199.958C81.8291 200.167 81.7858 200.387 81.7858 200.616C81.7858 200.848 81.8291 201.068 81.9196 201.277C82.0063 201.49 82.1323 201.675 82.2937 201.84ZM107.238 169.561L108.234 174.542C108.301 174.884 108.458 175.179 108.706 175.424C108.955 175.672 109.246 175.829 109.588 175.896L114.569 176.892L107.73 183.732L101.623 182.511L100.398 176.4L107.238 169.561Z" fill="#F58634"/>
<mask id="mask0_97_4245" style="mask-type:luminance" maskUnits="userSpaceOnUse" x="56" y="173" width="55" height="55">
<path d="M56.5543 173.376H110.88V227.717H56.5543V173.376Z" fill="white"/>
</mask>
<g mask="url(#mask0_97_4245)">
<path d="M92.1887 174.975C89.3774 174.014 86.4833 173.533 83.5144 173.545C82.6285 173.545 81.7426 173.589 80.8606 173.675C79.9786 173.762 79.1005 173.892 78.2303 174.065C77.3641 174.238 76.5017 174.455 75.6552 174.711C74.8047 174.967 73.9739 175.266 73.1549 175.605C72.3359 175.943 71.5326 176.325 70.753 176.743C69.9694 177.16 69.2095 177.613 68.4732 178.109C67.7369 178.601 67.0242 179.129 66.3391 179.692C65.6539 180.251 64.9964 180.845 64.3703 181.475C63.7442 182.101 63.1497 182.759 62.5866 183.444C62.0236 184.129 61.4959 184.838 61.0037 185.578C60.5116 186.315 60.0548 187.075 59.6374 187.854C59.2201 188.638 58.8421 189.437 58.4995 190.256C58.1609 191.075 57.8656 191.91 57.6057 192.76C57.3497 193.607 57.1332 194.465 56.9599 195.335C56.7867 196.206 56.6567 197.08 56.5701 197.966C56.4835 198.848 56.4402 199.73 56.4402 200.616C56.4402 201.505 56.4835 202.387 56.5701 203.269C56.6567 204.155 56.7867 205.03 56.9599 205.9C57.1332 206.77 57.3497 207.628 57.6057 208.475C57.8656 209.325 58.1609 210.16 58.4995 210.979C58.8421 211.798 59.2201 212.597 59.6374 213.381C60.0548 214.161 60.5116 214.921 61.0037 215.657C61.4959 216.397 62.0236 217.106 62.5866 217.791C63.1497 218.476 63.7442 219.134 64.3703 219.76C64.9964 220.39 65.6539 220.984 66.3391 221.543C67.0242 222.106 67.7369 222.634 68.4732 223.126C69.2095 223.618 69.9694 224.075 70.753 224.493C71.5326 224.91 72.3359 225.292 73.1549 225.631C73.9739 225.969 74.8047 226.268 75.6552 226.524C76.5017 226.78 77.3641 226.997 78.2303 227.17C79.1005 227.343 79.9786 227.473 80.8606 227.56C81.7426 227.647 82.6285 227.69 83.5144 227.69C84.4004 227.69 85.2863 227.647 86.1683 227.56C87.0503 227.473 87.9244 227.343 88.7946 227.17C89.6648 226.997 90.5232 226.78 91.3737 226.524C92.2202 226.268 93.055 225.969 93.874 225.631C94.693 225.292 95.4923 224.91 96.2759 224.493C97.0594 224.075 97.8154 223.618 98.5557 223.126C99.292 222.634 100.005 222.106 100.69 221.543C101.375 220.984 102.029 220.39 102.659 219.76C103.285 219.134 103.879 218.476 104.442 217.791C105.005 217.106 105.533 216.397 106.025 215.657C106.517 214.921 106.97 214.161 107.391 213.381C107.809 212.597 108.187 211.798 108.525 210.979C108.864 210.16 109.163 209.325 109.419 208.475C109.679 207.628 109.892 206.77 110.065 205.9C110.238 205.03 110.368 204.155 110.455 203.269C110.541 202.387 110.585 201.505 110.585 200.616C110.597 197.647 110.12 194.753 109.155 191.945C109.081 191.729 108.966 191.532 108.817 191.362C108.663 191.189 108.482 191.055 108.277 190.953C108.073 190.855 107.856 190.799 107.628 190.784C107.399 190.772 107.175 190.799 106.958 190.874C106.742 190.949 106.549 191.063 106.376 191.217C106.206 191.366 106.068 191.548 105.97 191.752C105.868 191.957 105.812 192.174 105.797 192.402C105.785 192.63 105.812 192.855 105.887 193.071C106.726 195.517 107.139 198.033 107.132 200.616C107.132 201.391 107.092 202.163 107.017 202.931C106.943 203.703 106.828 204.466 106.675 205.226C106.525 205.982 106.336 206.734 106.112 207.475C105.887 208.215 105.627 208.939 105.332 209.656C105.037 210.369 104.706 211.07 104.34 211.751C103.978 212.432 103.58 213.094 103.151 213.739C102.722 214.381 102.261 215.003 101.769 215.602C101.28 216.196 100.761 216.771 100.213 217.318C99.6661 217.866 99.0951 218.382 98.4966 218.874C97.8981 219.366 97.276 219.823 96.6342 220.256C95.9924 220.685 95.3269 221.083 94.6457 221.445C93.9646 221.811 93.2676 222.142 92.551 222.437C91.8383 222.733 91.1099 222.992 90.3696 223.217C89.6294 223.441 88.8812 223.63 88.1213 223.78C87.3614 223.93 86.5975 224.044 85.8297 224.122C85.0579 224.197 84.2862 224.233 83.5144 224.233C82.7387 224.233 81.967 224.197 81.1992 224.122C80.4274 224.044 79.6636 223.93 78.9076 223.78C78.1476 223.63 77.3995 223.441 76.6592 223.217C75.919 222.992 75.1906 222.733 74.4739 222.437C73.7612 222.142 73.0643 221.811 72.3792 221.445C71.698 221.083 71.0365 220.685 70.3907 220.256C69.7489 219.823 69.1307 219.366 68.5322 218.874C67.9337 218.382 67.3589 217.866 66.8155 217.318C66.2682 216.771 65.7484 216.196 65.2562 215.602C64.768 215.003 64.3073 214.381 63.8781 213.739C63.4489 213.094 63.0512 212.432 62.6851 211.751C62.3189 211.07 61.9921 210.369 61.6928 209.656C61.3975 208.939 61.1376 208.215 60.9132 207.475C60.6887 206.734 60.4997 205.982 60.3501 205.226C60.2005 204.466 60.0863 203.703 60.0115 202.931C59.9327 202.163 59.8973 201.391 59.8973 200.616C59.8973 199.844 59.9327 199.072 60.0115 198.304C60.0863 197.533 60.2005 196.769 60.3501 196.009C60.4997 195.253 60.6887 194.501 60.9132 193.76C61.1376 193.02 61.3975 192.296 61.6928 191.579C61.9921 190.866 62.3189 190.165 62.6851 189.484C63.0512 188.803 63.4489 188.142 63.8781 187.496C64.3073 186.854 64.768 186.232 65.2562 185.633C65.7484 185.039 66.2682 184.464 66.8155 183.917C67.3589 183.369 67.9337 182.854 68.5322 182.361C69.1307 181.869 69.7489 181.412 70.3907 180.979C71.0365 180.55 71.698 180.152 72.3792 179.79C73.0643 179.424 73.7612 179.093 74.4739 178.798C75.1906 178.503 75.919 178.243 76.6592 178.018C77.3995 177.794 78.1476 177.605 78.9076 177.455C79.6636 177.302 80.4274 177.191 81.1992 177.113C81.967 177.038 82.7387 177.002 83.5144 177.002C86.0974 176.991 88.6135 177.404 91.0587 178.243C91.2752 178.318 91.4997 178.349 91.7281 178.333C91.9564 178.321 92.173 178.262 92.3817 178.164C92.5864 178.062 92.7636 177.928 92.9172 177.754C93.0707 177.581 93.181 177.388 93.2558 177.172C93.3306 176.955 93.3621 176.735 93.3464 176.506C93.3346 176.278 93.2755 176.057 93.1771 175.853C93.0786 175.648 92.9408 175.467 92.7676 175.317C92.5982 175.164 92.4053 175.049 92.1887 174.975Z" fill="#F58634"/>
</g>
<path d="M137.864 196.841H152.701C152.669 199.038 152.307 201.058 151.614 202.904C150.929 204.743 149.96 206.338 148.7 207.692C147.44 209.047 145.944 210.102 144.212 210.858C142.479 211.614 140.561 211.992 138.463 211.992C136.423 211.992 134.529 211.634 132.777 210.921C131.021 210.208 129.489 209.2 128.178 207.897C126.863 206.598 125.851 205.058 125.138 203.282C124.422 201.51 124.067 199.589 124.067 197.518C124.067 195.419 124.418 193.486 125.123 191.722C125.823 189.958 126.816 188.426 128.099 187.123C129.391 185.812 130.907 184.792 132.651 184.067C134.403 183.335 136.297 182.965 138.337 182.965C140.644 182.965 142.782 183.418 144.747 184.319C146.708 185.213 148.354 186.457 149.677 188.052C151 189.639 151.874 191.482 152.307 193.58H146.102C145.511 192.068 144.53 190.879 143.156 190.005C141.778 189.123 140.215 188.682 138.463 188.682C136.813 188.682 135.364 189.06 134.116 189.816C132.875 190.572 131.903 191.608 131.202 192.919C130.497 194.234 130.147 195.766 130.147 197.518C130.147 199.242 130.493 200.758 131.186 202.07C131.879 203.385 132.844 204.412 134.084 205.157C135.332 205.893 136.793 206.259 138.463 206.259C140.266 206.259 141.884 205.826 143.314 204.952C144.739 204.082 145.708 202.928 146.212 201.487H137.864V196.841Z" fill="#007AFF"/>
<path d="M167.185 211.992C164.956 211.992 162.968 211.496 161.216 210.512C159.46 209.515 158.081 208.161 157.073 206.448C156.065 204.739 155.561 202.806 155.561 200.652C155.561 198.479 156.065 196.537 157.073 194.825C158.081 193.116 159.46 191.769 161.216 190.793C162.968 189.816 164.956 189.328 167.185 189.328C169.378 189.328 171.351 189.816 173.107 190.793C174.859 191.769 176.233 193.116 177.233 194.825C178.241 196.537 178.745 198.479 178.745 200.652C178.745 202.806 178.241 204.739 177.233 206.448C176.233 208.161 174.859 209.515 173.107 210.512C171.351 211.496 169.378 211.992 167.185 211.992ZM167.185 206.543C168.854 206.543 170.217 206.003 171.28 204.92C172.339 203.83 172.871 202.408 172.871 200.652C172.871 198.912 172.339 197.498 171.28 196.415C170.217 195.325 168.854 194.777 167.185 194.777C165.484 194.777 164.102 195.325 163.043 196.415C161.98 197.498 161.452 198.912 161.452 200.652C161.452 202.408 161.98 203.83 163.043 204.92C164.102 206.003 165.484 206.543 167.185 206.543Z" fill="#007AFF"/>
<path d="M200.464 189.879H204.796V211.346H200.228L199.756 209.441C198.819 210.24 197.763 210.866 196.59 211.315C195.413 211.764 194.149 211.992 192.794 211.992C190.64 211.992 188.715 211.496 187.014 210.512C185.321 209.515 183.982 208.161 182.998 206.448C182.021 204.739 181.533 202.794 181.533 200.621C181.533 198.471 182.021 196.537 182.998 194.825C183.982 193.116 185.321 191.769 187.014 190.793C188.715 189.816 190.64 189.328 192.794 189.328C194.168 189.328 195.448 189.56 196.637 190.021C197.834 190.485 198.897 191.123 199.834 191.942L200.464 189.879ZM193.267 206.495C194.377 206.495 195.377 206.243 196.259 205.739C197.149 205.235 197.85 204.542 198.354 203.66C198.858 202.77 199.11 201.755 199.11 200.621C199.11 199.51 198.858 198.51 198.354 197.628C197.85 196.738 197.149 196.033 196.259 195.518C195.377 194.994 194.377 194.73 193.267 194.73C192.133 194.73 191.125 194.994 190.243 195.518C189.369 196.033 188.683 196.738 188.179 197.628C187.675 198.51 187.423 199.51 187.423 200.621C187.423 201.755 187.675 202.763 188.179 203.645C188.683 204.519 189.369 205.212 190.243 205.724C191.125 206.239 192.133 206.495 193.267 206.495Z" fill="#007AFF"/>
<path d="M210.378 211.394V182.162H216.174V211.394H210.378Z" fill="#007AFF"/>
<path d="M256.261 211.394H250.15L247.394 193.218L239.094 211.346H237.613L229.297 193.218L226.557 211.394H220.398L224.777 183.563H230.809L238.338 200.621L245.882 183.563H251.93L256.261 211.394Z" fill="#007AFF"/>
<path d="M278.061 189.879H282.392V211.346H277.825L277.352 209.441C276.415 210.24 275.36 210.866 274.187 211.315C273.009 211.764 271.745 211.992 270.391 211.992C268.237 211.992 266.312 211.496 264.611 210.512C262.918 209.515 261.579 208.161 260.594 206.448C259.618 204.739 259.13 202.794 259.13 200.621C259.13 198.471 259.618 196.537 260.594 194.825C261.579 193.116 262.918 191.769 264.611 190.793C266.312 189.816 268.237 189.328 270.391 189.328C271.765 189.328 273.045 189.56 274.234 190.021C275.431 190.485 276.494 191.123 277.431 191.942L278.061 189.879ZM270.863 206.495C271.974 206.495 272.974 206.243 273.856 205.739C274.746 205.235 275.447 204.542 275.951 203.66C276.455 202.77 276.707 201.755 276.707 200.621C276.707 199.51 276.455 198.51 275.951 197.628C275.447 196.738 274.746 196.033 273.856 195.518C272.974 194.994 271.974 194.73 270.863 194.73C269.729 194.73 268.721 194.994 267.839 195.518C266.965 196.033 266.28 196.738 265.776 197.628C265.272 198.51 265.02 199.51 265.02 200.621C265.02 201.755 265.272 202.763 265.776 203.645C266.28 204.519 266.965 205.212 267.839 205.724C268.721 206.239 269.729 206.495 270.863 206.495Z" fill="#007AFF"/>
<path d="M298.464 206.228H301.094V211.394H296.999C294.637 211.394 292.77 210.712 291.408 209.346C290.042 207.984 289.361 206.109 289.361 203.723V194.573H285.47V193.344L293.975 184.304H295.046V189.926H300.968V194.573H295.172V202.967C295.172 203.999 295.456 204.802 296.023 205.377C296.59 205.944 297.401 206.228 298.464 206.228Z" fill="#007AFF"/>
<path d="M325.914 200.573C325.914 201.132 325.871 201.703 325.788 202.29H309.566C309.806 203.751 310.388 204.873 311.314 205.661C312.247 206.44 313.412 206.826 314.81 206.826C315.818 206.826 316.72 206.606 317.519 206.165C318.315 205.724 318.925 205.121 319.346 204.353H325.473C324.674 206.684 323.319 208.543 321.41 209.929C319.508 211.307 317.307 211.992 314.81 211.992C312.688 211.992 310.786 211.496 309.109 210.512C307.427 209.515 306.101 208.161 305.124 206.448C304.155 204.739 303.675 202.806 303.675 200.652C303.675 198.51 304.155 196.585 305.124 194.872C306.101 193.163 307.427 191.812 309.109 190.824C310.786 189.828 312.688 189.328 314.81 189.328C317.015 189.328 318.953 189.84 320.622 190.856C322.292 191.875 323.587 193.234 324.512 194.935C325.445 196.628 325.914 198.506 325.914 200.573ZM314.81 194.258C313.519 194.258 312.424 194.616 311.534 195.329C310.64 196.045 310.038 197.037 309.723 198.305H320.102C319.252 195.608 317.488 194.258 314.81 194.258Z" fill="#007AFF"/>
</svg>
